<?xml version="1.0" encoding="utf-8"?>
<!-- Svg Vector Icons : http://www.onlinewebfonts.com/icon -->
<!DOCTYPE svg PUBLIC "-//W3C//DTD SVG 1.1//EN" "http://www.w3.org/Graphics/SVG/1.1/DTD/svg11.dtd">
<svg version="1.1" xmlns="http://www.w3.org/2000/svg" xmlns:xlink="http://www.w3.org/1999/xlink" x="0px" y="0px" viewBox="0 0 1000 1000" enable-background="new 0 0 1000 1000" xml:space="preserve">
<metadata> Svg Vector Icons : http://www.onlinewebfonts.com/icon </metadata>
<g><path d="M10,267.7c0,56,45.4,101.4,101.4,101.4c56,0,101.4-45.4,101.4-101.4l0,0c0-56-45.4-101.4-101.4-101.4C55.4,166.3,10,211.7,10,267.7L10,267.7z"/><path d="M360.6,354.3h538.6c48.6,0,90.8-40.1,90.8-90.8c0-50.7-40.1-90.8-90.8-90.8H360.6c-50.7,0-90.8,40.1-90.8,90.8C269.8,314.1,309.9,354.3,360.6,354.3z"/><path d="M10,500c0,56,45.4,101.4,101.4,101.4c56,0,101.4-45.4,101.4-101.4c0-56-45.4-101.4-101.4-101.4C55.4,398.6,10,444,10,500L10,500z"/><path d="M360.6,586.6h538.6c48.6,0,90.8-40.1,90.8-90.8S949.9,405,899.2,405H360.6c-50.7,0-90.8,40.1-90.8,90.8S309.9,586.6,360.6,586.6z"/><path d="M10,732.3c0,56,45.4,101.4,101.4,101.4c56,0,101.4-45.4,101.4-101.4c0-56-45.4-101.4-101.4-101.4C55.4,630.9,10,676.3,10,732.3L10,732.3z"/><path d="M360.6,818.9h538.6c48.6,0,90.8-40.1,90.8-90.8c0-50.7-40.1-90.8-90.8-90.8H360.6c-50.7,0-90.8,40.1-90.8,90.8C269.8,778.8,309.9,818.9,360.6,818.9z"/></g>
</svg>